<svg xmlns="http://www.w3.org/2000/svg" viewBox="0 0 287.15 343.23"><path d="M361.55,170c-.21.24-.43.47-.65.69a26.88,26.88,0,0,1-10.13,6.83c-1.91.81-4,1.88-6.2,2.61,1.34-.18,2.68-.42,4-.73-.93,6.88-6.47,11.51-12.24,15.11-3.63,2.27-8.28,3.57-12.42,4.51-3.05.7-9.29.62-12.05-1.64,2.87-4.12,4.59-9.46,3.36-14.27.68,7.16-3.48,13.39-9.32,17.63-4.54,3.88-10.42,5.83-16.22,6.81a67.69,67.69,0,0,1-17.93.26,45.77,45.77,0,0,1-8-1.54,23.9,23.9,0,0,1-4.58-2c-.95-.51-2-1-3.07-1.48a7.9,7.9,0,0,0,2.56-3.32.56.56,0,0,0,0-.55,24,24,0,0,1-12,5.62,44.55,44.55,0,0,1-9.58,1,30.54,30.54,0,0,1-11.58-1.7,11.36,11.36,0,0,1-5.47-4.06l.09,0-.1,0a13.78,13.78,0,0,1-1.23-2.13c-.19-.31-.38-.63-.55-.95a10.72,10.72,0,0,0,1,3.23c-8.52,1.64-16.76,2.28-24.89-2.57A16.37,16.37,0,0,1,186,185.06a15.56,15.56,0,0,1,1.79-10,16.26,16.26,0,0,1,.77-1.86c.35-.74.75-1.62,1.22-2.51a24.18,24.18,0,0,0-3.57,4.46c-3-.92-4.88-3.35-6.18-6-.8-1.62-1.76-3.1-2.44-4.79a21.28,21.28,0,0,1-1-5.6,30.52,30.52,0,0,1,.34-11,37.54,37.54,0,0,1,4.07-9.64c3.4-5.9,9-9.6,14.58-13.26,6.89-4.56,14.11-5.73,22.19-5.47,0,.38.11.79.2,1.21a20.45,20.45,0,0,1,1.6-4.82,26.73,26.73,0,0,1,7.54-8.75,35.72,35.72,0,0,1,7.11-4.36,41.17,41.17,0,0,1,13.18-4.32,60.84,60.84,0,0,1,10.37-.21,19.45,19.45,0,0,1,9.45,2.71c2.8,1.59,5.43,3.12,7.32,5.79a1.74,1.74,0,0,1,.11.18,27.47,27.47,0,0,1,5.32,8.55.91.91,0,0,0,.19-.53,13.5,13.5,0,0,0-.23-1.44c4-4.44,10.5-6.88,16.1-8.53a51.85,51.85,0,0,1,18.8-1.68,21.87,21.87,0,0,1,15.27,8.4c4.3,5,5.82,11,5.53,17.26a1,1,0,0,0,.79-.53,9.76,9.76,0,0,0,.58-1.47,8.2,8.2,0,0,0,2.56-.29,23.35,23.35,0,0,1,6.08,0c4.07.33,8.15.75,11.81,2.68,7,3.72,10.22,11.35,11.34,18.78C370,155.93,366.77,164.07,361.55,170Z" transform="translate(-173.96 -95.24)" style="fill:#fff"/><path d="M371.78,149.05c-.75-8.08-3.53-15.94-10.29-20.93-3.56-2.62-7.43-3.59-11.79-4a57.47,57.47,0,0,0-6.82-.17c-1.91.08-3.65.86-5.48,1.12.62-4.45-1.15-9.65-3.53-13.11-3.81-5.55-9.5-10.12-16.29-11.28a48.13,48.13,0,0,0-20.94,1.37c-6.05,1.65-13.24,4.85-17,10.17-1.64-5.23-6.44-9.56-10.71-12.4-3.23-2.15-6.47-3.9-10.37-4.3a48.83,48.83,0,0,0-12,.08c-8,1.22-15,5-21,10.14a30.15,30.15,0,0,0-6.36,7.95,8.28,8.28,0,0,0-1.46,5.09,32.47,32.47,0,0,0-21.91,4.1c-6.73,3.8-13.13,8.31-17.09,15.09a40.93,40.93,0,0,0-4.16,10.51c-1,4-.52,8.08-.1,12.15.46,4.51,2.48,7.68,4.39,11.68a10.46,10.46,0,0,0,6.28,4.95,18.25,18.25,0,0,0-1.37,5.22,16.9,16.9,0,0,0,6.05,15,24.28,24.28,0,0,0,7.2,4.28,31.42,31.42,0,0,0,22.22-1.61c2.94,5.66,10.51,7.35,16.77,7.37a42.38,42.38,0,0,0,14-1.91,22.36,22.36,0,0,0,5.72-2.58,23,23,0,0,0,5.56,3.37,45.61,45.61,0,0,0,9.74,3.35c.7.17,1.4.31,2.09.44a63.86,63.86,0,0,0,19.37-.86,32.83,32.83,0,0,0,17.07-9.14q.75-.78,1.44-1.65c2.5,2.43,7.42,2.87,10.61,2.92,5.06.1,11.09-2.26,15.47-4.61,7.13-3.83,13.48-10,14.29-18.21a28.77,28.77,0,0,0,11.93-6.7C368.94,166.29,372.51,157,371.78,149.05ZM361.55,170c-.21.24-.43.47-.65.69a26.88,26.88,0,0,1-10.13,6.83c-1.91.81-4,1.88-6.2,2.61,1.34-.18,2.68-.42,4-.73-.93,6.88-6.47,11.51-12.24,15.11-3.63,2.27-8.28,3.57-12.42,4.51-3.05.7-9.29.62-12.05-1.64,2.87-4.12,4.59-9.46,3.36-14.27.68,7.16-3.48,13.39-9.32,17.63-4.54,3.88-10.42,5.83-16.22,6.81a67.69,67.69,0,0,1-17.93.26,45.77,45.77,0,0,1-8-1.54,23.9,23.9,0,0,1-4.58-2c-.95-.51-2-1-3.07-1.48a7.9,7.9,0,0,0,2.56-3.32.56.56,0,0,0,0-.55,24,24,0,0,1-12,5.62,44.55,44.55,0,0,1-9.58,1,30.54,30.54,0,0,1-11.58-1.7,11.36,11.36,0,0,1-5.47-4.06l.09,0-.1,0a13.78,13.78,0,0,1-1.23-2.13c-.19-.31-.38-.63-.55-.95a10.72,10.72,0,0,0,1,3.23c-8.52,1.64-16.76,2.28-24.89-2.57A16.37,16.37,0,0,1,186,185.06a15.56,15.56,0,0,1,1.79-10,16.26,16.26,0,0,1,.77-1.86c.35-.74.75-1.62,1.22-2.51a24.18,24.18,0,0,0-3.57,4.46c-3-.92-4.88-3.35-6.18-6-.8-1.62-1.76-3.1-2.44-4.79a21.28,21.28,0,0,1-1-5.6,30.52,30.52,0,0,1,.34-11,37.54,37.54,0,0,1,4.07-9.64c3.4-5.9,9-9.6,14.58-13.26,6.89-4.56,14.11-5.73,22.19-5.47,0,.38.11.79.2,1.21a20.45,20.45,0,0,1,1.6-4.82,26.73,26.73,0,0,1,7.54-8.75,35.72,35.72,0,0,1,7.11-4.36,41.17,41.17,0,0,1,13.18-4.32,60.84,60.84,0,0,1,10.37-.21,19.45,19.45,0,0,1,9.45,2.71c2.8,1.59,5.43,3.12,7.32,5.79a1.74,1.74,0,0,1,.11.18,27.47,27.47,0,0,1,5.32,8.55.91.91,0,0,0,.19-.53,13.5,13.5,0,0,0-.23-1.44c4-4.44,10.5-6.88,16.1-8.53a51.85,51.85,0,0,1,18.8-1.68,21.87,21.87,0,0,1,15.27,8.4c4.3,5,5.82,11,5.53,17.26a1,1,0,0,0,.79-.53,9.76,9.76,0,0,0,.58-1.47,8.2,8.2,0,0,0,2.56-.29,23.35,23.35,0,0,1,6.08,0c4.07.33,8.15.75,11.81,2.68,7,3.72,10.22,11.35,11.34,18.78C370,155.93,366.77,164.07,361.55,170Z" transform="translate(-173.96 -95.24)" style="fill:#4667a5"/><path d="M330,217.47c.87.88.13,2.39-.68,3a5.36,5.36,0,0,1-1.76.87c-.27.11-.55.21-.83.3a13.07,13.07,0,0,1-2.9.64,3.77,3.77,0,0,1-3.06-.84c-2-2.07,2.87-4.18,4.21-4.5C326.52,216.58,328.79,216.24,330,217.47Z" transform="translate(-173.96 -95.24)" style="fill:#fcfcfc"/><path d="M322.92,217h0c-1.42.52-3.16,2.09-3.18,3.7,0,2.09,2.3,2.69,4,2.6a11.6,11.6,0,0,0,7.53-3.11,2.13,2.13,0,0,0-.13-3.13c-2.17-2.19-5.55-1.47-8.13-.11Zm7.1.5c.87.88.13,2.39-.68,3a5.36,5.36,0,0,1-1.76.87c-.27.11-.55.21-.83.3a13.07,13.07,0,0,1-2.9.64,3.77,3.77,0,0,1-3.06-.84c-2-2.07,2.87-4.18,4.21-4.5C326.52,216.58,328.79,216.24,330,217.47Z" transform="translate(-173.96 -95.24)" style="fill:#4667a5"/><path d="M321,211.45c-.25,1.18-2,2.14-3,2.55a16.28,16.28,0,0,1-4.64,1.44c-2.69.57-5.88.48-7.87-1.39a1.81,1.81,0,0,1-.59-1.91,3.16,3.16,0,0,1,1.5-1.66c2.07-1.33,4.58-1.59,7-1.84,1.37-.15,3.91-.4,5.47.38a4.9,4.9,0,0,1,1.75,1.07A1.54,1.54,0,0,1,321,211.45Z" transform="translate(-173.96 -95.24)" style="fill:#fff"/><path d="M321.7,210.69c-.27-1.54-2.33-2.2-3.67-2.61a17,17,0,0,0-3.78-.14,21.89,21.89,0,0,0-7.14,1.25,6.16,6.16,0,0,0-1.63,1,4.13,4.13,0,0,0-1.67,2.87,3.61,3.61,0,0,0,1.67,2.89c2.17,1.49,4.85,1.59,7.38,1.25C315.65,216.87,322.4,214.64,321.7,210.69Zm-.75.76c-.25,1.18-2,2.14-3,2.55a16.28,16.28,0,0,1-4.64,1.44c-2.69.57-5.88.48-7.87-1.39a1.81,1.81,0,0,1-.59-1.91,3.16,3.16,0,0,1,1.5-1.66c2.07-1.33,4.58-1.59,7-1.84,1.37-.15,3.91-.4,5.47.38a4.9,4.9,0,0,1,1.75,1.07A1.54,1.54,0,0,1,321,211.45Z" transform="translate(-173.96 -95.24)" style="fill:#4667a5"/><path d="M320.31,421.45c-.92,2.05.47,9-2.88,10.57s-31,8.66-37.63,5.77-7.65-5.33-5.64-8.37,19.48-6.35,22.63-7.91,9-5,9.75-6.77C308.61,410.08,326,408.82,320.31,421.45Z" transform="translate(-173.96 -95.24)" style="fill:#707070"/><path d="M341.56,236.8c-6.16-9.16,29.82-28.41,43.18-7.85,5,5.3,5.49,6.13,10.73,7.06,28,6.86,43.37,43.94,14.53,54.83-32.07,12.1-31.45,19.79-46.52,18.69-33.07-2.4-24.84-40.35-29.42-49.18C328.79,250.2,328.56,240,341.56,236.8Z" transform="translate(-173.96 -95.24)" style="fill:#823c1e"/><path d="M384.78,261.53s6.86,13.43,16.08,19,4.24,24.67-5.23,26.38-9.52,1.94-10.64-.78c-3.72-9,.42-16.8-3.06-21S384.78,261.53,384.78,261.53Z" transform="translate(-173.96 -95.24)" style="fill:#ffcc72"/><path d="M306.72,413.63a30.55,30.55,0,0,0,21.65,6c5.15-11.58,20.61-40.1,28.87-62,0,0,11.79,57.91,34.24,69.43,13.61,7,54.46,11.12,65.19-8.78,6.11-11.33,6.82-28.89-3.6-41.47-18.46,6.9-36,11.54-46.52,6.33-4.66-11.24-25-57.39-33.47-63.5s-30.17-11.61-37.3,5.23S306.72,413.63,306.72,413.63Z" transform="translate(-173.96 -95.24)" style="fill:#5d84bc"/><path d="M457.52,382.46s-6.34-39.84-19-60.64-16.11-34.05-41.24-44.07c11.19,14.52-12.11,30.09-13.81,20.25-2.37,5.67-11.42,27.28-4.65,38.63,1.26,2.11,24.67,47.4,30.62,51.38S428.54,397.18,457.52,382.46Z" transform="translate(-173.96 -95.24)" style="fill:#b6abe4"/><path d="M334.75,343.89s-10.41-4.12-4.72,10.34c9.32,8.37,55.08,24.48,66.73,21.43s20.65-8.78,24.53-17.15,11-34.3,7.38-46.78-19.14-26.94-32.34-7.92-.36,29.43-19.71,44.64C369.42,353.53,334.75,343.89,334.75,343.89Z" transform="translate(-173.96 -95.24)" style="fill:#a69add"/><path d="M322.72,354.22c-6.07.35-10.82-6.17-6.83-14s15.17-10.3,17.68-4.48S322.72,354.22,322.72,354.22Z" transform="translate(-173.96 -95.24)" style="fill:#ffcc72"/><path d="M332,340.52s-15-.76-9.31,13.7c9.31,8.37,62.35,22.57,74,19.53s16.3-6.09,20.18-14.46,12.68-38.45,9.05-50.93-19.14-26.94-32.34-7.92-.36,29.43-19.71,44.64C366.7,350.16,332,340.52,332,340.52Z" transform="translate(-173.96 -95.24)" style="fill:#b6abe4"/><path d="M377,244.52s22.67,38-1.52,46.76c-20.2,7.29-31.73-28.42-31.73-28.42C333.69,242.82,367.2,224.35,377,244.52Z" transform="translate(-173.96 -95.24)" style="fill:#ffcc72"/><path d="M346.89,268.87s4.53,10,4.85,11.11.17,1.17-.16,1.54c-1.93,2.18-2.48,5.68,2.42,4.34,1.85-.5,4.74-2.46,3.95-3.9s-7.33-14.86-7.33-14.86C349.86,265.56,346.6,266.43,346.89,268.87Z" transform="translate(-173.96 -95.24)" style="fill:#ffcc72"/><path d="M339.92,264.27c4.71-1.65,12.57-5.59,9.95-15.41,8.46,21.59,28.9,4.78,34.81,19.38-.67-7.74-5.54-48.4-34.31-38C335.31,235.72,339.92,264.27,339.92,264.27Z" transform="translate(-173.96 -95.24)" style="fill:#823c1e"/><path d="M377.35,261.87s1.73-6.35,5-5.91,7.88,7.08,2.82,13.09C383.13,270.55,377.31,265.37,377.35,261.87Z" transform="translate(-173.96 -95.24)" style="fill:#ffcc72"/><path d="M268.72,139.49a37.48,37.48,0,0,0-11.43-1.42,17.55,17.55,0,0,0-8.73,2.92,20.27,20.27,0,0,0-5.8,6.15,22.78,22.78,0,0,0-2.06,4.28,24.06,24.06,0,0,0-.76,2.46.91.91,0,0,0,.15,1q.36.53.75,1a21.11,21.11,0,0,0,7,5.86,31.67,31.67,0,0,0,8.15,2.73c1.37.28,2.76.5,4.15.71a8.62,8.62,0,0,0,4,0c2.86-1,3.26-4.5,2.94-7.06a16.9,16.9,0,0,0-3.67-8.36,14,14,0,0,0-7.14-5,10,10,0,0,0-2-.33.49.49,0,0,0-.49.49c.21,3.55,2.31,6.23,5.07,8.27a126.62,126.62,0,0,0,11.17,7.29,139.88,139.88,0,0,0,23.6,11.17A107.93,107.93,0,0,0,306,175.35a23.68,23.68,0,0,0,7,.75c1.68-.12,3.62-.39,3.92-2.38.28-1.84-.85-3.95-1.76-5.48a13.18,13.18,0,0,0-3.37-3.87,9.69,9.69,0,0,0-5-1.81,17.56,17.56,0,0,1-3.46-.54,9.76,9.76,0,0,1-2.6-1.35,58.67,58.67,0,0,1-4.88-4.17,39.13,39.13,0,0,0-5.11-3.77,31.24,31.24,0,0,0-11.16-4.27c-.93-.16-1.87-.26-2.81-.33-.55,0-.69.9-.13,1L296,151.73v-.95A215.28,215.28,0,0,0,267.6,158c-2.71.89-5.39,1.83-8.06,2.82l.27.95,9.42-3.82-.38-.91L243.27,175c-.32.22-.34.82.12.9a38.17,38.17,0,0,0,26.41-5c1.09-.64,2.14-1.33,3.17-2.05a12.34,12.34,0,0,0,2.39-2,4.75,4.75,0,0,0,.29-5.57,16.08,16.08,0,0,0-2-2.61c-.82-.92-1.67-1.82-2.55-2.68a46.41,46.41,0,0,0-5.19-4.4,36.88,36.88,0,0,0-11.51-5.7,14.54,14.54,0,0,0-6.54-.62,6.67,6.67,0,0,0-4.85,3.32,4.37,4.37,0,0,0,1.16,5.31,13.63,13.63,0,0,0,2.61,1.53c1.18.6,2.38,1.16,3.6,1.69a63.73,63.73,0,0,0,14.47,4.37,55.08,55.08,0,0,0,7.24.79,4.92,4.92,0,0,0,4.37-1.69c1.34-1.81,1.06-4.35.73-6.43a28.38,28.38,0,0,0-2-6.93,21.81,21.81,0,0,0-1.57-2.94.49.49,0,0,0-.85.5,112.41,112.41,0,0,0,9.81,15.34c.63.82,1.65,2,2.83,1.47.92-.45,1.23-1.67,1.4-2.59a43.43,43.43,0,0,0,.45-4.4q.18-2.44.27-4.89.18-5.52-.13-11a.5.5,0,0,0-.93-.25,12.63,12.63,0,0,0-1.19,8.07,12.76,12.76,0,0,0,3.77,7.55,11.35,11.35,0,0,0,3.24,2.1c1.15.48,2.63,1,3.81.34s1.62-2.12,1.88-3.34a50.09,50.09,0,0,0,.71-5q.74-6.3,1-12.65h-1l.08,5.6.63-.48c-15-4.41-29.95-8.87-44.95-13.22a9.68,9.68,0,0,0-3.95-.5,4.61,4.61,0,0,0-3.4,2.28.5.5,0,0,0,.43.74c6.07.22,10.64-5.06,12.85-10.17a.5.5,0,0,0-.67-.68,14.3,14.3,0,0,0-7.69,7.78,13.37,13.37,0,0,0,.41,10.49,4.38,4.38,0,0,0,3.29,2.68l-.48-.62c-3.41,9.08-7.17,20.8-1.31,29.71a20.63,20.63,0,0,0,11.29,8.23,17.58,17.58,0,0,0,7,.59c1.93-.23,4.26-.64,5.73-2,1.68-1.59,1.58-4.12.52-6a14.87,14.87,0,0,0-5-4.84,15.52,15.52,0,0,0-12.31-2.1,13.8,13.8,0,0,0-5.69,2.92,5.22,5.22,0,0,0-1.33,5.91c.89,2.08,2.91,3.39,4.77,4.52a25.38,25.38,0,0,0,7,3,22,22,0,0,0,3.6.61,6.47,6.47,0,0,0,2.77-.19,4,4,0,0,0,2.87-3.9,5.37,5.37,0,0,0-3.64-4.66,7,7,0,0,0-5.88.33A9.07,9.07,0,0,0,263,173.6a.51.51,0,0,0,.35.85A28.81,28.81,0,0,0,280,171.38c4.52-2.31,8.61-5.62,11-10.17a18,18,0,0,0,2.09-8.66l-.85.35a9.22,9.22,0,0,0,5.77,3.42,7.67,7.67,0,0,0,5.73-1.65c3.63-2.81,5.42-7.74,5.72-12.19a15.72,15.72,0,0,0-.9-6.9c-.63-1.59-1.73-3.26-3.54-3.57A4.13,4.13,0,0,0,301,134a7.14,7.14,0,0,0-.52,6.18,9.48,9.48,0,0,0,4.38,5.07c1.7.94,4,0,3.54-2.19a.5.5,0,0,0-.35-.35c-5-1.18-8.82,3.61-10.53,7.65a20,20,0,0,0-1.58,8.8,8.43,8.43,0,0,0,1.07,3.67c.44.74,1.21,1.68,2.19,1.46,1.22-.28,1.52-1.88,1.63-2.92a12.55,12.55,0,0,0-.44-4.56,15.92,15.92,0,0,0-4.33-7,28.14,28.14,0,0,0-15.91-7.3c-6.74-.83-13.54.69-19.73,3.34l.6.78a22.74,22.74,0,0,0,5.29-12.09.51.51,0,0,0-.61-.61c-6.26,1.7-10.27,7.88-12.26,13.67a.5.5,0,0,0,.35.61c2.55.92,5.22.63,7.84.22,2.84-.45,5.67-.92,8.51-1.38,1.33-.22,2.68-.38,4-.67a5.11,5.11,0,0,0,2.75-1.49,9.5,9.5,0,0,0,2-5,37.21,37.21,0,0,0,.18-7.46.5.5,0,0,0-.63-.48,62.94,62.94,0,0,0-22.4,11.3c-2,1.57-4,3.25-5.86,5a.5.5,0,0,0,.1.78,12.9,12.9,0,0,0,7.67,2.47,14.06,14.06,0,0,0,7.68-2.59,21.15,21.15,0,0,0,6.23-7.16c.36-.66.85-1.76,1.68-1.92s1.55.48,2.22.75a3.08,3.08,0,0,0,3.59-1c2.93-3.23,2.44-8.42,2.17-12.42l-.92.25a28.07,28.07,0,0,0,6.26,6.83l-.18-.68a34.78,34.78,0,0,1-4.61,4.94c-.49.42.21,1.11.7.7l4.77-4.07-.85-.35a42.61,42.61,0,0,0,2.76,15.72A29.82,29.82,0,0,0,296.83,162a16.54,16.54,0,0,0,5.58,3.44.5.5,0,0,0,.63-.48c-.25-3.15-2.32-7.94-6.23-7.35a.51.51,0,0,0-.35.35,10.43,10.43,0,0,0-.15,6c.43,1.42,1.46,3,3.16,2.7a3.54,3.54,0,0,0,2.55-3.51c0-2.18-1.6-4.28-3.21-5.61a6.93,6.93,0,0,0-5-1.84,4,4,0,0,0-3.4,3.08c-1,4.37,3.75,6.7,7.31,7.23,4.83.73,9.44-1.34,12.82-4.72l-.78-.1c1.18,1.89,3.72,4.45,6.11,2.82a6,6,0,0,0,2-6.16,5.39,5.39,0,0,0-2.21-3c-1.27-.92-2.61-1.76-3.95-2.57a65.54,65.54,0,0,0-8.4-4.26,55.58,55.58,0,0,0-35.08-2.74,14.65,14.65,0,0,0-6.22,3.15,10.63,10.63,0,0,0-3.41,7.11.46.46,0,0,0,.24.43,10.2,10.2,0,0,0,9.94-1l-.75-.42a22.46,22.46,0,0,1-1.77,6.27,1,1,0,0,0,.06,1.06A4.8,4.8,0,0,0,267,163a3,3,0,0,0,2,1v-1a30.47,30.47,0,0,0-14.58,3.45.52.52,0,0,0-.18.68,8,8,0,0,0,5.28,4.15c3.17,1,6.39,1.79,9.58,2.68l20.09,5.6L294,181a8.15,8.15,0,0,0,3.64.55c2.48-.49,2.82-3.49,2.45-5.51a14.29,14.29,0,0,0-3.43-6.59A57.82,57.82,0,0,0,290.3,163a44.88,44.88,0,0,0-15.83-9c-.61-.19-.87.77-.26,1a42.85,42.85,0,0,1,13.47,7.2,56.23,56.23,0,0,1,6.08,5.57,22.61,22.61,0,0,1,4.6,6.14c.77,1.76,1.71,5-.19,6.44-1,.71-2.28.22-3.3-.06l-4.79-1.33-18.53-5.17-10.41-2.91a15.62,15.62,0,0,1-3.51-1.25,6.09,6.09,0,0,1-2.62-2.85l-.18.68A29.38,29.38,0,0,1,268.91,164c.65,0,.62-.93,0-1-.94-.1-1.56-1.05-1.87-1.86l-.05.38a23.4,23.4,0,0,0,2-6.95.5.5,0,0,0-.75-.43,9.24,9.24,0,0,1-8.94,1l.25.42a9.64,9.64,0,0,1,2.68-6,12.19,12.19,0,0,1,4.88-2.92,41.12,41.12,0,0,1,7.35-1.57,52,52,0,0,1,8.08-.47,58.69,58.69,0,0,1,31.29,10.23c1.21.81,2.54,1.61,3,3.08a5.3,5.3,0,0,1-.38,3.77,2.54,2.54,0,0,1-2.58,1.76c-1.45-.23-2.54-1.63-3.27-2.79a.5.5,0,0,0-.78-.1,14.75,14.75,0,0,1-9.3,4.56,12.34,12.34,0,0,1-4.86-.66,6.92,6.92,0,0,1-3.83-2.64,3.58,3.58,0,0,1,.46-4.45,3.64,3.64,0,0,1,3.84-.34,8.69,8.69,0,0,1,4,3.53c.86,1.35,1.33,3.26.07,4.54a1.55,1.55,0,0,1-1.63.51,2.72,2.72,0,0,1-1.29-1.78,9.47,9.47,0,0,1,.1-5.65l-.35.35a3.7,3.7,0,0,1,3.26,1.68,8.78,8.78,0,0,1,1.72,4.71l.63-.48c-3.78-1.33-6.74-4.35-8.91-7.62a37.08,37.08,0,0,1-5.33-13.35,43,43,0,0,1-.8-8.76.5.5,0,0,0-.84-.35L282,138.45l.7.7A36.29,36.29,0,0,0,287.5,134c.18-.23,0-.54-.18-.68a26.73,26.73,0,0,1-5.9-6.47c-.26-.38-1-.28-.93.25.24,3.6.69,7.94-1.42,11.12a3.71,3.71,0,0,1-1.47,1.39,2.4,2.4,0,0,1-2.09-.31,4.09,4.09,0,0,0-1.91-.58,2.39,2.39,0,0,0-1.73,1c-1,1.24-1.63,2.77-2.58,4.06a18.73,18.73,0,0,1-3.1,3.32,13.67,13.67,0,0,1-7.23,3.23,12,12,0,0,1-8.22-2.27l.11.78a68,68,0,0,1,21.4-14,58.46,58.46,0,0,1,6.41-2.09l-.62-.48a42.09,42.09,0,0,1,0,6.15,10.91,10.91,0,0,1-1.52,5.2c-1.31,1.89-3.86,1.9-5.93,2.23l-7.94,1.29c-2.87.47-5.81,1-8.62,0l.35.61c1.88-5.46,5.65-11.38,11.56-13l-.61-.61c-.62,4.2-2.12,8.49-5,11.66a.5.5,0,0,0,.6.78,39.24,39.24,0,0,1,15.74-3.43A28.22,28.22,0,0,1,292,147.82c4.33,2.84,8,7.2,7.88,12.65,0,.56-.09,3.09-1.13,2.78-.39-.12-.69-.65-.88-1a7,7,0,0,1-.7-1.75,15.41,15.41,0,0,1,.61-8,15.76,15.76,0,0,1,4.07-6.89,6.56,6.56,0,0,1,5.94-2l-.35-.35a1.07,1.07,0,0,1-1.05,1.34,3.12,3.12,0,0,1-1.93-.83,8.29,8.29,0,0,1-3.11-4.17,6.1,6.1,0,0,1,.55-5.22,3,3,0,0,1,3.36-1.31c1.49.51,2.27,2.28,2.69,3.67a16.25,16.25,0,0,1,.54,5.93c-.31,3.85-1.8,8-4.68,10.67a7,7,0,0,1-5.2,2,8.2,8.2,0,0,1-5.64-3.19.5.5,0,0,0-.84.35c.14,10.83-9.9,18.36-19.62,20.5a26.86,26.86,0,0,1-9.16.41l.35.84a7.07,7.07,0,0,1,5.17-2.69,5.67,5.67,0,0,1,4.79,2.45,3.13,3.13,0,0,1-1.25,4.51,4.26,4.26,0,0,1-2.08.38,22.14,22.14,0,0,1-3.34-.44,24.45,24.45,0,0,1-6.46-2.42c-1.78-1-3.87-2.13-5-3.86a4.25,4.25,0,0,1,.53-5.56,12.17,12.17,0,0,1,5-2.68,14.27,14.27,0,0,1,11.23,1.5,15.94,15.94,0,0,1,4.79,4.08c1.2,1.62,1.81,4.07.16,5.63a5.55,5.55,0,0,1-2.23,1.13,15.82,15.82,0,0,1-3.19.64,16.91,16.91,0,0,1-6.33-.59,19.69,19.69,0,0,1-10.26-7.14c-5.61-7.73-3.06-18.13-.19-26.4.37-1.07.76-2.13,1.16-3.19.12-.33-.19-.6-.48-.63-1.17-.12-1.95-1.22-2.44-2.19a11.53,11.53,0,0,1-1.09-4.48,12.21,12.21,0,0,1,3.56-9.46,15.28,15.28,0,0,1,4.46-3l-.68-.67c-2.08,4.79-6.27,9.89-12,9.68l.43.75c1.54-2.5,4.32-1.89,6.7-1.19l10.76,3.17L286.88,138l12.2,3.59a.5.5,0,0,0,.62-.48l-.08-5.6a.5.5,0,0,0-1,0c-.14,3.33-.37,6.67-.7,10-.16,1.61-.34,3.23-.55,4.83a15.59,15.59,0,0,1-.83,4.06,2.25,2.25,0,0,1-1.24,1.39,3.33,3.33,0,0,1-2-.23,10.08,10.08,0,0,1-3.06-1.69,11.41,11.41,0,0,1-3.85-6.45,12,12,0,0,1,.89-8.43l-.92-.25a122.07,122.07,0,0,1-.28,17.63,12.72,12.72,0,0,1-.6,3.63c-.2.49-.52,1-1.1.68a5.09,5.09,0,0,1-1.39-1.53c-1.62-2.15-3.15-4.36-4.61-6.62q-2.56-4-4.81-8.19l-.85.5a23.49,23.49,0,0,1,2.61,5.83,21.39,21.39,0,0,1,1.08,6.58c-.05,1.93-.86,3.66-2.9,4a10.37,10.37,0,0,1-2.49,0c-1.11-.07-2.22-.17-3.32-.31a61.1,61.1,0,0,1-13.44-3.29,67.61,67.61,0,0,1-6.5-2.79c-1.6-.8-3.75-1.61-4.19-3.56-.49-2.19,1.28-4,3.17-4.67a10.31,10.31,0,0,1,6-.1,34,34,0,0,1,10.67,4.63,46.05,46.05,0,0,1,9.6,8.4c1.31,1.5,2.94,3.36,2.21,5.52a4.56,4.56,0,0,1-1.63,2c-.91.71-1.87,1.36-2.84,2a38.07,38.07,0,0,1-24.06,6.26c-1-.1-2.06-.25-3.09-.44l.12.9,25.58-17.92c.42-.3.17-1.14-.39-.91l-9.42,3.83c-.58.23-.34,1.18.27.95a220.36,220.36,0,0,1,28.26-8.39c2.72-.61,5.45-1.16,8.19-1.67.46-.08.48-.89,0-.95l-19.35-2.63-.13,1a28.85,28.85,0,0,1,10.86,3,35,35,0,0,1,5.06,3.1c1.67,1.22,3.18,2.62,4.72,4a19.38,19.38,0,0,0,4.55,3.3c1.92.89,3.94.78,6,1.17,3.43.67,5.8,3.6,7.18,6.64.65,1.44,1.67,4.07-.59,4.55a16.94,16.94,0,0,1-6.69-.17,87.83,87.83,0,0,1-11.91-3.38,136.68,136.68,0,0,1-22.45-10.11q-5.55-3.12-10.82-6.69c-2.76-1.87-6-3.8-7.26-7.07a8.56,8.56,0,0,1-.55-2.6l-.5.5c3.44.26,6.37,2.47,8.44,5.11a14.82,14.82,0,0,1,3.43,9.86c-.11,1.55-.73,3.38-2.37,3.9-1.46.47-3.21,0-4.68-.25a38.53,38.53,0,0,1-9.33-2.44,20.84,20.84,0,0,1-9.07-7.49l0,.38a21.83,21.83,0,0,1,6.41-11.17A17.23,17.23,0,0,1,259.36,139a41.79,41.79,0,0,1,9.09,1.43c.62.15.89-.81.27-1Z" transform="translate(-173.96 -95.24)" style="fill:#6f90c6"/></svg>